<?xml version="1.0" standalone="no"?>
<!DOCTYPE svg PUBLIC "-//W3C//DTD SVG 20010904//EN"
 "http://www.w3.org/TR/2001/REC-SVG-20010904/DTD/svg10.dtd">
<svg version="1.0" xmlns="http://www.w3.org/2000/svg"
 width="344.000000pt" height="344.000000pt" viewBox="0 0 344.000000 344.000000"
 preserveAspectRatio="xMidYMid meet">
<metadata>
Created by potrace 1.16, written by Peter Selinger 2001-2019
</metadata>
<g transform="translate(0.000000,344.000000) scale(0.100000,-0.100000)"
fill="#000000" stroke="none">
<path d="M427 2996 c-60 -22 -114 -62 -152 -114 -69 -93 -66 -36 -63 -1183 l3
-1034 23 -46 c33 -67 83 -121 143 -154 l54 -30 1285 0 1285 0 54 30 c60 33
110 87 143 154 l23 46 0 840 0 840 -23 46 c-33 67 -83 121 -143 154 l-54 30
-769 5 -769 5 -81 148 c-86 158 -132 213 -205 249 -45 22 -56 23 -381 25 -264
2 -343 0 -373 -11z m672 -233 c16 -16 48 -63 71 -105 l41 -78 -392 0 -392 0 6
69 c12 141 10 140 359 141 l278 0 29 -27z m1858 -423 c18 -11 36 -32 40 -47
10 -37 10 -1539 0 -1576 -4 -15 -22 -36 -40 -47 -31 -20 -57 -20 -1235 -20
-1304 0 -1243 -3 -1274 53 -10 17 -14 198 -16 840 l-3 817 1248 0 c1223 0
1249 0 1280 -20z"/>
</g>
</svg>
